<svg xmlns="http://www.w3.org/2000/svg" xmlns:xlink="http://www.w3.org/1999/xlink" width="22" height="20" viewBox="0 0 22 20" fill="none">
<path d="M3.50997 2.61637C3.69934 2.7839 4.08701 3.11741 4.5343 3.5L3.5 3.5C1.567 3.5 0 5.067 0 7L0 16.5C0 18.433 1.567 20 3.5 20L18.5 20C20.433 20 22 18.433 22 16.5L22 7C22 5.067 20.433 3.5 18.5 3.5L17.4657 3.5C17.913 3.11741 18.3007 2.7839 18.49 2.61637C19.1105 2.06745 19.1689 1.12686 18.62 0.506371C18.0711 -0.114121 17.1305 -0.172545 16.51 0.376371C16.046 0.786838 13.7541 2.60762 12.6275 3.5L9.37252 3.5C8.24588 2.60762 5.95396 0.786838 5.48997 0.376371C4.86948 -0.172545 3.92889 -0.114121 3.37997 0.506371C2.83106 1.12686 2.88948 2.06745 3.50997 2.61637ZM3 8L3 15.5C3 16.3284 3.67157 17 4.5 17L17.5 17C18.3284 17 19 16.3284 19 15.5L19 8C19 7.17157 18.3284 6.5 17.5 6.5L4.5 6.5C3.67157 6.5 3 7.17157 3 8ZM5.5 10L5.5 12C5.5 12.8284 6.17157 13.5 7 13.5C7.82843 13.5 8.5 12.8284 8.5 12L8.5 10C8.5 9.17157 7.82843 8.5 7 8.5C6.17157 8.5 5.5 9.17157 5.5 10ZM13.5 12L13.5 10C13.5 9.17157 14.1716 8.5 15 8.5C15.8284 8.5 16.5 9.17157 16.5 10L16.5 12C16.5 12.8284 15.8284 13.5 15 13.5C14.1716 13.5 13.5 12.8284 13.5 12Z" fill-rule="evenodd"  fill="#FFFFFF" >
</path>
</svg>
