<svg xmlns="http://www.w3.org/2000/svg" xmlns:xlink="http://www.w3.org/1999/xlink" width="512" height="384" viewBox="0 0 512 384" fill="none"><path id="路径 1" fill-rule="evenodd" style="fill:#FFFFFF" opacity="1" d="M64 48C55.2 48 48 55.2 48 64L48 86.1L220.5 227.7C241.2 244.7 270.9 244.7 291.6 227.7L464 86.1L464 64C464 55.2 456.8 48 448 48L64 48ZM48 148.2L48 320C48 328.8 55.2 336 64 336L448 336C456.8 336 464 328.8 464 320L464 148.2L322 264.8C283.6 296.3 228.3 296.3 190 264.8L48 148.2ZM0 64C0 28.7 28.7 0 64 0L448 0C483.3 0 512 28.7 512 64L512 320C512 355.3 483.3 384 448 384L64 384C28.7 384 0 355.3 0 320L0 64Z"></path></svg>