<svg xmlns="http://www.w3.org/2000/svg" xmlns:xlink="http://www.w3.org/1999/xlink" width="64" height="62.402626037597656" viewBox="0 0 64 62.402626037597656" fill="none"><path id="路径 1" fill-rule="evenodd" style="fill:#FFFFFF" opacity="1" d="M21.41 50.25C21.41 50.5081 21.1142 50.71 20.74 50.71C20.3142 50.7487 20.01 50.5468 20.01 50.25C20.01 49.9919 20.3058 49.78 20.68 49.78C21.0671 49.7413 21.41 49.9532 21.41 50.25ZM17.39 49.66C17.2997 49.9181 17.5629 50.2226 17.95 50.3C18.2855 50.429 18.6726 50.2981 18.75 50.04C18.8274 49.7819 18.5771 49.4861 18.19 49.37C17.8545 49.2797 17.4803 49.4019 17.39 49.66ZM23.1 49.45C22.7258 49.5403 22.4613 49.7832 22.5 50.08C22.5387 50.3381 22.8729 50.5003 23.26 50.41C23.6342 50.3197 23.8987 50.0781 23.86 49.82C23.8213 49.5748 23.4742 49.4113 23.1 49.45ZM31.59 0C13.6932 0 0 13.5832 0 31.48C0 45.7897 9.00548 58.0403 21.87 62.35C23.5216 62.6468 24.1 61.6287 24.1 60.79C24.1 59.99 24.06 55.5697 24.06 52.86C24.06 52.86 15.0368 54.8006 13.14 49.02C13.14 49.02 11.6661 45.2677 9.55 44.3C9.55 44.3 6.58871 42.2713 9.75 42.31C9.75 42.31 12.9723 42.569 14.74 45.64C17.5658 50.6206 22.2948 49.1916 24.14 48.34C24.4368 46.2755 25.281 44.8416 26.21 43.99C18.9971 43.19 11.72 42.1429 11.72 29.73C11.72 26.1816 12.6955 24.401 14.76 22.13C14.4245 21.2913 13.3323 17.8345 15.1 13.37C17.7968 12.5313 24 16.85 24 16.85C26.5806 16.1274 29.3516 15.75 32.1 15.75C34.8484 15.75 37.6294 16.1274 40.21 16.85C40.21 16.85 46.4132 12.5184 49.11 13.37C50.8777 17.8474 49.7855 21.2913 49.45 22.13C51.5145 24.4139 52.77 26.1945 52.77 29.73C52.77 42.1816 45.1729 43.1771 37.96 43.99C39.1471 45.0094 40.15 46.9377 40.15 49.97C40.15 54.3184 40.12 59.7019 40.12 60.76C40.12 61.5987 40.7113 62.6168 42.35 62.32C55.2532 58.0361 64 45.7897 64 31.48C64 13.5832 49.4868 0 31.59 0ZM12.54 44.5C12.3723 44.629 12.4106 44.9248 12.63 45.17C12.8365 45.3765 13.1323 45.4677 13.3 45.3C13.4677 45.171 13.4294 44.8752 13.21 44.63C13.0035 44.4235 12.7077 44.3323 12.54 44.5ZM11.15 43.46C11.0597 43.6277 11.1919 43.831 11.45 43.96C11.6565 44.089 11.9097 44.0506 12 43.87C12.0903 43.7023 11.9581 43.499 11.7 43.37C11.4419 43.2926 11.2403 43.331 11.15 43.46ZM15.33 48.05C15.1235 48.2177 15.2032 48.6048 15.5 48.85C15.7968 49.1468 16.1723 49.1865 16.34 48.98C16.5077 48.8123 16.4281 48.4252 16.17 48.18C15.8861 47.8832 15.4977 47.8435 15.33 48.05ZM13.86 46.15C13.6535 46.279 13.6535 46.6232 13.86 46.92C14.0665 47.2168 14.4123 47.339 14.58 47.21C14.7865 47.0423 14.7865 46.7068 14.58 46.41C14.3994 46.1132 14.0665 45.9823 13.86 46.15Z"></path></svg>