<svg xmlns="http://www.w3.org/2000/svg" xmlns:xlink="http://www.w3.org/1999/xlink" width="768" height="225.88232421875" viewBox="0 0 768 225.88232421875" fill="none"><path id="HCS" fill-rule="evenodd" style="fill:#FFFFFF" opacity="1" d="M0 0L45.1765 0L45.1765 90.3529L180.706 90.3529L180.706 0L225.882 0L225.882 225.882L180.706 225.882L180.706 135.529L45.1765 135.529L45.1765 225.882L0 225.882L0 0ZM271.059 32.0753L303.134 0L496.941 0L496.941 45.1765L316.235 45.1765L316.235 180.706L496.941 180.706L496.941 225.882L303.134 225.882L271.059 193.807L271.059 32.0753ZM574.193 0L542.118 32.0753L542.118 103.454L574.193 135.529L722.824 135.529L722.824 180.706L542.118 180.706L542.118 225.882L735.925 225.882L768 193.807L768 122.428L735.925 90.3529L587.294 90.3529L587.294 45.1765L768 45.1765L768 0L574.193 0Z"></path></svg>