<svg xmlns="http://www.w3.org/2000/svg" xmlns:xlink="http://www.w3.org/1999/xlink" width="511.886962890625" height="447.95404052734375" viewBox="0 0 511.886962890625 447.95404052734375" fill="none"><path id="路径 1" fill-rule="evenodd" style="fill:#FFFFFF" opacity="1" d="M226.441 60.8538C240.741 103.754 226.141 147.054 193.841 157.654C161.541 168.254 123.741 142.054 109.441 99.1538C95.1409 56.2538 109.741 12.9538 142.041 2.35386C174.341 -8.24614 212.141 17.9538 226.441 60.8538ZM100.341 166.554C119.241 198.954 114.641 236.654 90.1409 250.654C65.6409 264.654 30.4409 249.754 11.6409 217.354C-7.15908 184.954 -2.75909 147.254 21.7409 133.254C46.2409 119.254 81.4409 134.154 100.241 166.554L100.341 166.554ZM69.1409 369.154C121.541 227.854 214.641 191.954 255.941 191.954C297.241 191.954 390.341 227.854 442.741 369.154C446.341 378.854 447.941 389.254 447.941 399.654L447.941 401.254C447.941 427.054 427.041 447.954 401.241 447.954C389.741 447.954 378.341 446.554 367.241 443.754L279.241 421.754C263.941 417.954 247.941 417.954 232.641 421.754L144.641 443.754C133.541 446.554 122.141 447.954 110.641 447.954C84.8409 447.954 63.9409 427.054 63.9409 401.254L63.9409 399.654C63.9409 389.254 65.5409 378.854 69.1409 369.154ZM421.741 250.654C397.241 236.654 392.641 198.954 411.541 166.554C430.441 134.154 465.541 119.254 490.041 133.254C514.541 147.254 519.141 184.954 500.241 217.354C481.341 249.754 446.241 264.654 421.741 250.654ZM310.041 157.654C277.741 147.054 263.141 103.754 277.441 60.8538C291.741 17.9538 329.541 -8.24614 361.841 2.35386C394.141 12.9538 408.741 56.2538 394.441 99.1538C380.141 142.054 342.341 168.254 310.041 157.654Z"></path></svg>