<svg xmlns="http://www.w3.org/2000/svg" xmlns:xlink="http://www.w3.org/1999/xlink" width="86" height="12" viewBox="0 0 86 12" fill="none">
<path d="M0 0L3 0L6 3L3 6L0 6L3 3L0 0ZM9 6L6 3L6 0L9 3L12 0L12 3L9 6ZM9 6L6 9L9 12L12 12L9 9L12 6L9 6Z" fill-rule="evenodd"  fill="#808080" >
</path>
<path d="M6 6L3 6L0 9L3 9L0 12L3 12L6 9L3 9L6 6Z" fill-rule="evenodd"  fill="#FFD600" >
</path>
<path     fill="#000000"  d="M19.0645 1.11682C20.3116 1.11682 21.0303 1.79439 21.0303 1.79439C21.7489 2.47196 21.7489 3.65187 21.7489 3.65187C21.7489 4.77336 21.0303 5.44509 21.0303 5.44509C20.3116 6.11682 19.0645 6.11682 19.0645 6.11682L17.556 6.11682L17.556 9.17757L16 9.17757L16 1.11682L19.0645 1.11682ZM18.9932 4.77336C19.5515 4.77336 19.8722 4.48131 19.8722 4.48131C20.1929 4.18925 20.1929 3.65187 20.1929 3.65187C20.1929 3.06776 19.8781 2.75818 19.8781 2.75818C19.5633 2.4486 18.9932 2.4486 18.9932 2.4486L17.556 2.4486L17.556 4.77336L18.9932 4.77336Z">
</path>
<path     fill="#000000"  d="M22.6753 3.1028L24.1126 3.1028L24.1126 3.73364C24.3382 3.34813 24.7183 3.16122 24.7183 3.16122C25.0984 2.9743 25.5735 2.9743 25.5735 2.9743C25.8467 2.9743 26.0724 3.02103 26.0724 3.02103L26.0724 4.37617C25.6567 4.24766 25.336 4.24766 25.336 4.24766C24.8015 4.24766 24.4748 4.58061 24.4748 4.58061C24.1482 4.91355 24.1482 5.53271 24.1482 5.53271L24.1482 9.17757L22.6753 9.17757L22.6753 3.1028Z">
</path>
<path     fill="#000000"  d="M29.3269 9.24766C28.1629 9.24766 27.4918 8.6285 27.4918 8.6285C26.8207 8.00935 26.8207 6.70093 26.8207 6.70093L26.8207 5.56776C26.8207 4.27103 27.4918 3.65187 27.4918 3.65187C28.1629 3.03271 29.3269 3.03271 29.3269 3.03271C30.4791 3.03271 31.1442 3.65187 31.1442 3.65187C31.8094 4.27103 31.8094 5.56776 31.8094 5.56776L31.8094 6.70093C31.8094 8.00935 31.1442 8.6285 31.1442 8.6285C30.4791 9.24766 29.3269 9.24766 29.3269 9.24766ZM29.3269 7.96262C30.3484 7.96262 30.3484 6.68925 30.3484 6.68925L30.3484 5.59112C30.3484 4.31776 29.3269 4.31776 29.3269 4.31776C28.2817 4.31776 28.2817 5.59112 28.2817 5.59112L28.2817 6.68925C28.2817 7.96262 29.3269 7.96262 29.3269 7.96262Z">
</path>
<path     fill="#000000"  d="M33.009 1.11682L34.5056 1.11682L34.5056 2.27336L33.009 2.27336L33.009 1.11682ZM31.9519 9.75L32.4508 9.75C32.7596 9.75 32.9021 9.58645 32.9021 9.58645C33.0447 9.4229 33.0447 9.06075 33.0447 9.06075L33.0447 3.1028L34.5056 3.1028L34.5056 9.15421C34.5056 10.0421 34.0187 10.521 34.0187 10.521C33.5317 11 32.6408 11 32.6408 11L31.9519 11L31.9519 9.75Z">
</path>
<path     fill="#000000"  d="M37.2019 6.57243L37.2019 6.73598C37.2019 7.41355 37.5107 7.70561 37.5107 7.70561C37.8196 7.99766 38.3897 7.99766 38.3897 7.99766C38.8292 7.99766 39.0786 7.81659 39.0786 7.81659C39.328 7.63551 39.3518 7.30841 39.3518 7.30841L39.3637 7.27336L40.7653 7.27336L40.7653 7.33178C40.7653 8.19626 40.112 8.72196 40.112 8.72196C39.4587 9.24766 38.3303 9.24766 38.3303 9.24766C37.1425 9.24766 36.4417 8.57593 36.4417 8.57593C35.7409 7.90421 35.7409 6.50234 35.7409 6.50234L35.7409 5.76636C35.7409 4.39953 36.418 3.71612 36.418 3.71612C37.095 3.03271 38.2828 3.03271 38.2828 3.03271C39.4468 3.03271 40.1298 3.72196 40.1298 3.72196C40.8128 4.41121 40.8128 5.76636 40.8128 5.76636L40.8128 6.57243L37.2019 6.57243ZM38.2828 4.27103C37.7602 4.27103 37.481 4.56308 37.481 4.56308C37.2019 4.85514 37.2019 5.54439 37.2019 5.54439L37.2019 5.57944L39.3399 5.57944L39.3399 5.42757C39.3399 4.27103 38.2828 4.27103 38.2828 4.27103Z">
</path>
<path     fill="#000000"  d="M44.388 9.24766C43.224 9.24766 42.5529 8.6285 42.5529 8.6285C41.8818 8.00935 41.8818 6.70093 41.8818 6.70093L41.8818 5.56776C41.8818 4.27103 42.5529 3.65187 42.5529 3.65187C43.224 3.03271 44.388 3.03271 44.388 3.03271C45.5283 3.03271 46.1697 3.60514 46.1697 3.60514C46.8111 4.17757 46.8111 5.19393 46.8111 5.19393L46.8111 5.31075L45.4095 5.31075L45.4095 5.24065C45.4095 4.80841 45.1422 4.56308 45.1422 4.56308C44.875 4.31776 44.4117 4.31776 44.4117 4.31776C43.3427 4.31776 43.3427 5.59112 43.3427 5.59112L43.3427 6.68925C43.3427 7.3785 43.6219 7.67056 43.6219 7.67056C43.901 7.96262 44.4117 7.96262 44.4117 7.96262C44.875 7.96262 45.1422 7.72897 45.1422 7.72897C45.4095 7.49533 45.4095 7.07477 45.4095 7.07477L45.4095 7.00467L46.8111 7.00467L46.8111 7.08645C46.8111 8.09112 46.1697 8.66939 46.1697 8.66939C45.5283 9.24766 44.388 9.24766 44.388 9.24766Z">
</path>
<path     fill="#000000"  d="M49.9587 4.11916L49.9587 7.33178C49.9587 7.95093 50.5645 7.95093 50.5645 7.95093L51.0277 7.95093L51.0277 9.17757L50.3269 9.17757C49.4836 9.17757 48.9906 8.70444 48.9906 8.70444C48.4977 8.23131 48.4977 7.42523 48.4977 7.42523L48.4977 4.11916L47.6425 4.11916L47.6425 3.1028L48.4977 3.1028L48.4977 1.91121L49.9587 1.40888L49.9587 3.1028L51.1465 3.1028L51.1465 4.11916L49.9587 4.11916Z">
</path>
<path     fill="#000000"  d="M51.9779 7.51869L53.6289 7.51869L53.6289 9.17757L51.9779 9.17757L51.9779 7.51869ZM51.9779 3.57009L53.6289 3.57009L53.6289 5.22897L51.9779 5.22897L51.9779 3.57009Z">
</path>
<path     fill="#000000"  d="">
</path>
<path     fill="#000000"  d="M61.6623 9.24766C60.3439 9.24766 59.6075 8.5993 59.6075 8.5993C58.8711 7.95093 58.7879 6.7243 58.7879 6.7243L60.2608 6.7243C60.3439 7.39019 60.6943 7.66472 60.6943 7.66472C61.0447 7.93925 61.7336 7.93925 61.7336 7.93925C63.0521 7.93925 63.0521 6.87617 63.0521 6.87617C63.0521 6.3972 62.7907 6.14603 62.7907 6.14603C62.5294 5.89486 61.9593 5.8014 61.9593 5.8014L61.1872 5.6729C58.9661 5.31075 58.9661 3.42991 58.9661 3.42991C58.9661 2.30841 59.7203 1.65421 59.7203 1.65421C60.4746 1 61.7217 1 61.7217 1C62.9333 1 63.64 1.63084 63.64 1.63084C64.3467 2.26168 64.4418 3.40654 64.4418 3.40654L62.9452 3.40654C62.9095 2.82243 62.6007 2.55374 62.6007 2.55374C62.2919 2.28505 61.698 2.28505 61.698 2.28505C61.0922 2.28505 60.7834 2.55958 60.7834 2.55958C60.4746 2.83411 60.4746 3.31308 60.4746 3.31308C60.4746 3.73364 60.7478 3.97897 60.7478 3.97897C61.0209 4.2243 61.603 4.32944 61.603 4.32944L62.47 4.48131C64.5843 4.85514 64.5843 6.74766 64.5843 6.74766C64.5843 7.96262 63.7944 8.60514 63.7944 8.60514C63.0045 9.24766 61.6623 9.24766 61.6623 9.24766Z">
</path>
<path     fill="#000000"  d="M67.7675 6.63084L67.1143 7.3785L67.1143 9.17757L65.6414 9.17757L65.6414 1.11682L67.1143 1.11682L67.1143 5.62617L69.1097 3.1028L70.8558 3.1028L68.7415 5.52103L71.0102 9.17757L69.2285 9.17757L67.7675 6.63084Z">
</path>
<path     fill="#000000"  d="M73.6946 9.17757C72.8037 9.17757 72.3108 8.6986 72.3108 8.6986C71.8179 8.21963 71.8179 7.33178 71.8179 7.33178L71.8179 1.11682L73.2907 1.11682L73.2907 7.23832C73.2907 7.61215 73.4273 7.76986 73.4273 7.76986C73.5639 7.92757 73.8727 7.92757 73.8727 7.92757L74.3716 7.92757L74.3716 9.17757L73.6946 9.17757Z">
</path>
<path     fill="#000000"  d="M77.4598 3.03271C78.6358 3.03271 79.2653 3.57593 79.2653 3.57593C79.8948 4.11916 79.8948 5.18224 79.8948 5.18224L79.8948 9.17757L78.4695 9.17757L78.4695 8.65187C78.1606 8.96729 77.834 9.10748 77.834 9.10748C77.5074 9.24766 77.0085 9.24766 77.0085 9.24766C76.0583 9.24766 75.5356 8.74533 75.5356 8.74533C75.013 8.24299 75.013 7.35514 75.013 7.35514C75.013 6.53738 75.5713 6.06425 75.5713 6.06425C76.1295 5.59112 77.1273 5.59112 77.1273 5.59112L78.4338 5.59112L78.4338 5.11215C78.4338 4.14252 77.448 4.14252 77.448 4.14252C77.0322 4.14252 76.7887 4.34696 76.7887 4.34696C76.5453 4.5514 76.5453 4.89019 76.5453 4.89019L76.5453 4.92523L75.1793 4.92523L75.1793 4.8785C75.1793 4.0257 75.797 3.52921 75.797 3.52921C76.4146 3.03271 77.4598 3.03271 77.4598 3.03271ZM77.3411 8.07944C77.9231 8.07944 78.1785 7.81659 78.1785 7.81659C78.4338 7.55374 78.4338 7.01636 78.4338 7.01636L78.4338 6.58411L77.3648 6.58411C76.4384 6.58411 76.4384 7.32009 76.4384 7.32009C76.4384 8.07944 77.3411 8.07944 77.3411 8.07944Z">
</path>
<path     fill="#000000"  d="M83.1137 9.24766C82.2229 9.24766 81.6468 8.62266 81.6468 8.62266C81.0707 7.99766 81.0707 6.73598 81.0707 6.73598L81.0707 5.53271C81.0707 4.27103 81.6349 3.65187 81.6349 3.65187C82.1991 3.03271 83.1018 3.03271 83.1018 3.03271C84.0283 3.03271 84.539 3.72196 84.539 3.72196L84.539 1.11682L86 1.11682L86 9.17757L84.5628 9.17757L84.5628 8.61682C84.052 9.24766 83.1137 9.24766 83.1137 9.24766ZM83.4938 7.96262C83.9926 7.96262 84.2658 7.63551 84.2658 7.63551C84.539 7.30841 84.539 6.68925 84.539 6.68925L84.539 5.59112C84.539 4.97196 84.2718 4.64486 84.2718 4.64486C84.0045 4.31776 83.5294 4.31776 83.5294 4.31776C82.5436 4.31776 82.5436 5.59112 82.5436 5.59112L82.5436 6.68925C82.5436 7.96262 83.4938 7.96262 83.4938 7.96262Z">
</path>
</svg>
