<svg xmlns="http://www.w3.org/2000/svg" xmlns:xlink="http://www.w3.org/1999/xlink" width="66" height="15" viewBox="0 0 66 15" fill="none"><g opacity="1"  transform="translate(0 0)  rotate(0)"><path id="并集" fill-rule="evenodd" style="fill:#1C8C42" opacity="1" d="M0 15L2.63 15L3.7549 13.8751L3.7549 12.3801L1.4997 12.3801L2.8097 10.5001L3.7549 10.5001L3.7549 1.1251L13.1249 1.1251L13.1249 6.5599L11.8072 6.5599L9.9372 4.4999L5.6272 4.4999L4.3072 6.7499L5.2472 7.3099L6.1872 5.4399L7.8772 5.4399L6.5572 7.8799L5.9972 10.8699L3.1872 10.8699L2.4372 11.9999L7.1272 11.9999L7.6872 8.8099L10.3072 14.0599L11.6272 14.0599L8.8072 8.2499L9.9372 6.1899L11.2472 7.4999L13.1249 7.4999L13.1249 14.0651L12.19 15L16.5 15L16.5 0L0 0L0 15ZM10.1199 1.8749C9.4999 1.8749 8.9999 2.3749 8.9999 2.9949C8.9999 3.6249 9.4999 4.1249 10.1199 4.1249C10.7499 4.1249 11.2499 3.6249 11.2499 2.9949C11.2499 2.3749 10.7499 1.8749 10.1199 1.8749Z"></path><path id="拼合图形" fill-rule="evenodd" style="fill:#000000" opacity="1" d="M21 11.0225L22.5 11.0225L22.5 6.5225L24 9.02252L25 9.02252L26.482 6.52248L26.482 11L28 11L28 3L26.482 3.02252L24.5 6.86486L22.5 3.02252L21.0135 3.02252L21 11.0225ZM46.5 3.76003C46.5 3.35003 46.17 3.02003 45.76 3.02003L45.74 3.02003C45.33 3.02003 45 3.35003 45 3.76003C45 4.17003 45.33 4.50003 45.74 4.50003L45.76 4.50003C46.17 4.50003 46.5 4.17003 46.5 3.76003ZM59 9.52253L59 11.0225C57.07 11.0225 55.5 9.45253 55.5 7.52253L55.5 4.02253L57 3.02253L57 5.02253L59 5.02253L59 6.52253L57 6.52253L57 7.52253C57 8.62253 57.9 9.52253 59 9.52253ZM37.5 3.02255C37.5 3.02255 40 3.02255 40.5 3.02255C41.0001 3.02256 43.5 3.02257 43.5 5.54055C43.5 8.01569 41.6023 8.01433 40.5537 8.01358L40.5 8.01356C39.464 8.01357 39 8.01356 39 8.01356L39 11.0181L37.5 11.0181L37.5 3.02255ZM40.5546 6.53618L40.5545 6.53618C40.5358 6.53613 40.5176 6.53608 40.5 6.53608C40 6.53609 39 6.53608 39 6.53608L39 4.50454C39 4.50454 40 4.50453 40.5 4.50454C41 4.50455 42 4.50459 42 5.54059C42 6.54014 41.0691 6.53759 40.5546 6.53618ZM51 5.02253L54 5.02253L54 6.52253L51.5 6.52253L49.5 9.52253L54 9.52253L54 11.0225L51 11.0225C48.5 11.0225 48 9.02253 48 8.02253C48 7.02253 48.5 5.02253 51 5.02253ZM66 8.02253C66 9.68253 64.66 11.0225 63 11.0225C61.34 11.0225 60 9.68253 60 8.02253C60 6.36253 61.34 5.02253 63 5.02253C64.66 5.02253 66 6.36253 66 8.02253ZM33 5.03604L31 6.03604L31 5.05406L29.5 5.05406L29.5 11L31 10.991L31 7.53604L33 6.53604L33 5.03604ZM46.5 11.0181L46.5 5.02253L45 6.02253L45 10.991L46.5 11.0181ZM63 9.52253C62.17 9.52253 61.5 8.85253 61.5 8.02253C61.5 7.19253 62.17 6.52253 63 6.52253C63.83 6.52253 64.5 7.19253 64.5 8.02253C64.5 8.85253 63.83 9.52253 63 9.52253ZM33 9.5225L33 11L34.5 11L34.5 9.5225L33 9.5225Z"></path></g></svg>